{
   "accessors" : 
   [
      {
         "bufferView" : 0,
         "byteOffset" : 0,
         "componentType" : 5126,
         "count" : 23086,
         "max" : [ 9.1400003433227539, 13.715999603271484, 3.9600000381469727 ],
         "min" : [ 0.0, 0.0, 1.0576560497283936 ],
         "type" : "VEC3"
      },
      {
         "bufferView" : 1,
         "byteOffset" : 0,
         "componentType" : 5126,
         "count" : 23086,
         "normalized" : false,
         "type" : "VEC2"
      },
      {
         "bufferView" : 2,
         "byteOffset" : 0,
         "componentType" : 5125,
         "count" : 133848,
         "type" : "SCALAR"
      },
      {
         "bufferView" : 4,
         "byteOffset" : 0,
         "componentType" : 5126,
         "count" : 2,
         "max" : [ 0.0, 1.0, 0.0 ],
         "min" : [ 0.0, 0.0, 0.0 ],
         "type" : "VEC3"
      },
      {
         "bufferView" : 5,
         "byteOffset" : 0,
         "componentType" : 5126,
         "count" : 2,
         "normalized" : false,
         "type" : "VEC2"
      },
      {
         "bufferView" : 6,
         "byteOffset" : 0,
         "componentType" : 5125,
         "count" : 2,
         "type" : "SCALAR"
      },
      {
         "bufferView" : 7,
         "byteOffset" : 0,
         "componentType" : 5126,
         "count" : 2,
         "max" : [ 0.0, 1.0, 0.0 ],
         "min" : [ 0.0, 0.0, 0.0 ],
         "type" : "VEC3"
      },
      {
         "bufferView" : 8,
         "byteOffset" : 0,
         "componentType" : 5126,
         "count" : 2,
         "normalized" : false,
         "type" : "VEC2"
      },
      {
         "bufferView" : 9,
         "byteOffset" : 0,
         "componentType" : 5125,
         "count" : 2,
         "type" : "SCALAR"
      },
      {
         "bufferView" : 10,
         "byteOffset" : 0,
         "componentType" : 5126,
         "count" : 2,
         "max" : [ 0.0, 1.0, 0.0 ],
         "min" : [ 0.0, 0.0, 0.0 ],
         "type" : "VEC3"
      },
      {
         "bufferView" : 11,
         "byteOffset" : 0,
         "componentType" : 5126,
         "count" : 2,
         "normalized" : false,
         "type" : "VEC2"
      },
      {
         "bufferView" : 12,
         "byteOffset" : 0,
         "componentType" : 5125,
         "count" : 2,
         "type" : "SCALAR"
      },
      {
         "bufferView" : 13,
         "byteOffset" : 0,
         "componentType" : 5126,
         "count" : 17,
         "max" : [ 0.40000000596046448, 0.5, 0.40000000596046448 ],
         "min" : [ -0.40000000596046448, -0.5, -0.40000000596046448 ],
         "type" : "VEC3"
      },
      {
         "bufferView" : 14,
         "byteOffset" : 0,
         "componentType" : 5125,
         "count" : 90,
         "type" : "SCALAR"
      },
      {
         "bufferView" : 15,
         "byteOffset" : 0,
         "componentType" : 5126,
         "count" : 17,
         "max" : [ 0.40000000596046448, 0.5, 0.40000000596046448 ],
         "min" : [ -0.40000000596046448, -0.5, -0.40000000596046448 ],
         "type" : "VEC3"
      },
      {
         "bufferView" : 16,
         "byteOffset" : 0,
         "componentType" : 5125,
         "count" : 90,
         "type" : "SCALAR"
      },
      {
         "bufferView" : 17,
         "byteOffset" : 0,
         "componentType" : 5126,
         "count" : 17,
         "max" : [ 0.40000000596046448, 0.5, 0.40000000596046448 ],
         "min" : [ -0.40000000596046448, -0.5, -0.40000000596046448 ],
         "type" : "VEC3"
      },
      {
         "bufferView" : 18,
         "byteOffset" : 0,
         "componentType" : 5125,
         "count" : 90,
         "type" : "SCALAR"
      },
      {
         "bufferView" : 19,
         "byteOffset" : 0,
         "componentType" : 5126,
         "count" : 14,
         "max" : [ 1.1411700248718262, 1.0264400243759155, 0.0 ],
         "min" : [ 0.1519400030374527, -0.071429997682571411, 0.0 ],
         "type" : "VEC3"
      },
      {
         "bufferView" : 20,
         "byteOffset" : 0,
         "componentType" : 5125,
         "count" : 36,
         "type" : "SCALAR"
      },
      {
         "bufferView" : 21,
         "byteOffset" : 0,
         "componentType" : 5126,
         "count" : 12,
         "max" : [ 1.1452100276947021, 1.0257099866867065, 0.0 ],
         "min" : [ 0.15284000337123871, -0.071429997682571411, 0.0 ],
         "type" : "VEC3"
      },
      {
         "bufferView" : 22,
         "byteOffset" : 0,
         "componentType" : 5125,
         "count" : 30,
         "type" : "SCALAR"
      },
      {
         "bufferView" : 23,
         "byteOffset" : 0,
         "componentType" : 5126,
         "count" : 11,
         "max" : [ 1.0399999618530273, 1.0261499881744385, 0.0 ],
         "min" : [ 0.17395000159740448, -0.071860000491142273, 0.0 ],
         "type" : "VEC3"
      },
      {
         "bufferView" : 24,
         "byteOffset" : 0,
         "componentType" : 5125,
         "count" : 27,
         "type" : "SCALAR"
      }
   ],
   "asset" : 
   {
      "generator" : "VTK",
      "version" : "2.0"
   },
   "bufferViews" : 
   [
      {
         "buffer" : 0,
         "byteLength" : 277032,
         "byteOffset" : 0
      },
      {
         "buffer" : 1,
         "byteLength" : 184688,
         "byteOffset" : 0
      },
      {
         "buffer" : 2,
         "byteLength" : 535392,
         "byteOffset" : 0
      },
      {
         "buffer" : 3,
         "byteLength" : 2134,
         "byteOffset" : 0
      },
      {
         "buffer" : 4,
         "byteLength" : 24,
         "byteOffset" : 0
      },
      {
         "buffer" : 5,
         "byteLength" : 16,
         "byteOffset" : 0
      },
      {
         "buffer" : 6,
         "byteLength" : 8,
         "byteOffset" : 0
      },
      {
         "buffer" : 7,
         "byteLength" : 24,
         "byteOffset" : 0
      },
      {
         "buffer" : 8,
         "byteLength" : 16,
         "byteOffset" : 0
      },
      {
         "buffer" : 9,
         "byteLength" : 8,
         "byteOffset" : 0
      },
      {
         "buffer" : 10,
         "byteLength" : 24,
         "byteOffset" : 0
      },
      {
         "buffer" : 11,
         "byteLength" : 16,
         "byteOffset" : 0
      },
      {
         "buffer" : 12,
         "byteLength" : 8,
         "byteOffset" : 0
      },
      {
         "buffer" : 13,
         "byteLength" : 204,
         "byteOffset" : 0
      },
      {
         "buffer" : 14,
         "byteLength" : 360,
         "byteOffset" : 0
      },
      {
         "buffer" : 15,
         "byteLength" : 204,
         "byteOffset" : 0
      },
      {
         "buffer" : 16,
         "byteLength" : 360,
         "byteOffset" : 0
      },
      {
         "buffer" : 17,
         "byteLength" : 204,
         "byteOffset" : 0
      },
      {
         "buffer" : 18,
         "byteLength" : 360,
         "byteOffset" : 0
      },
      {
         "buffer" : 19,
         "byteLength" : 168,
         "byteOffset" : 0
      },
      {
         "buffer" : 20,
         "byteLength" : 144,
         "byteOffset" : 0
      },
      {
         "buffer" : 21,
         "byteLength" : 144,
         "byteOffset" : 0
      },
      {
         "buffer" : 22,
         "byteLength" : 120,
         "byteOffset" : 0
      },
      {
         "buffer" : 23,
         "byteLength" : 132,
         "byteOffset" : 0
      },
      {
         "buffer" : 24,
         "byteLength" : 108,
         "byteOffset" : 0
      }
   ],
   "buffers" : 
   [
      {
         "byteLength" : 277032,
         "uri" : "buffer943875.bin"
      },
      {
         "byteLength" : 184688,
         "uri" : "buffer1610346.bin"
      },
      {
         "byteLength" : 535392,
         "uri" : "buffer1610347.bin"
      },
      {
         "byteLength" : 2134,
         "uri" : "buffer1610803.bin"
      },
      {
         "byteLength" : 24,
         "uri" : "buffer92049.bin"
      },
      {
         "byteLength" : 16,
         "uri" : "buffer92053.bin"
      },
      {
         "byteLength" : 8,
         "uri" : "buffer1611134.bin"
      },
      {
         "byteLength" : 24,
         "uri" : "buffer92049.bin"
      },
      {
         "byteLength" : 16,
         "uri" : "buffer92053.bin"
      },
      {
         "byteLength" : 8,
         "uri" : "buffer1611382.bin"
      },
      {
         "byteLength" : 24,
         "uri" : "buffer92049.bin"
      },
      {
         "byteLength" : 16,
         "uri" : "buffer92053.bin"
      },
      {
         "byteLength" : 8,
         "uri" : "buffer1611630.bin"
      },
      {
         "byteLength" : 204,
         "uri" : "buffer91924.bin"
      },
      {
         "byteLength" : 360,
         "uri" : "buffer1612014.bin"
      },
      {
         "byteLength" : 204,
         "uri" : "buffer91924.bin"
      },
      {
         "byteLength" : 360,
         "uri" : "buffer1612397.bin"
      },
      {
         "byteLength" : 204,
         "uri" : "buffer91924.bin"
      },
      {
         "byteLength" : 360,
         "uri" : "buffer1612780.bin"
      },
      {
         "byteLength" : 168,
         "uri" : "buffer216493.bin"
      },
      {
         "byteLength" : 144,
         "uri" : "buffer1613140.bin"
      },
      {
         "byteLength" : 144,
         "uri" : "buffer216694.bin"
      },
      {
         "byteLength" : 120,
         "uri" : "buffer1613500.bin"
      },
      {
         "byteLength" : 132,
         "uri" : "buffer216892.bin"
      },
      {
         "byteLength" : 108,
         "uri" : "buffer1613860.bin"
      }
   ],
   "cameras" : 
   [
      {
         "perspective" : 
         {
            "aspectRatio" : 1.4440366972477063,
            "yfov" : 30.0,
            "zfar" : 50.940985161819491,
            "znear" : 17.609623152076328
         },
         "type" : "perspective"
      },
      {
         "perspective" : 
         {
            "aspectRatio" : 1.0,
            "yfov" : 30.0,
            "zfar" : 11.113848335222135,
            "znear" : 3.1922915454622967
         },
         "type" : "perspective"
      }
   ],
   "images" : 
   [
      {
         "bufferView" : 3,
         "mimeType" : "image/png"
      }
   ],
   "materials" : 
   [
      {
         "pbrMetallicRoughness" : 
         {
            "baseColorFactor" : [ 1.0, 1.0, 1.0, 1.0 ],
            "baseColorTexture" : 
            {
               "index" : 0,
               "texCoord" : 0
            },
            "metallicFactor" : 0.0,
            "roughnessFactor" : 1.0
         }
      },
      {
         "pbrMetallicRoughness" : 
         {
            "baseColorFactor" : [ 1.0, 0.0, 0.0, 1.0 ],
            "metallicFactor" : 0.0,
            "roughnessFactor" : 1.0
         }
      },
      {
         "pbrMetallicRoughness" : 
         {
            "baseColorFactor" : [ 1.0, 1.0, 0.0, 1.0 ],
            "metallicFactor" : 0.0,
            "roughnessFactor" : 1.0
         }
      },
      {
         "pbrMetallicRoughness" : 
         {
            "baseColorFactor" : [ 0.0, 1.0, 0.0, 1.0 ],
            "metallicFactor" : 0.0,
            "roughnessFactor" : 1.0
         }
      },
      {
         "pbrMetallicRoughness" : 
         {
            "baseColorFactor" : [ 1.0, 0.0, 0.0, 1.0 ],
            "metallicFactor" : 0.0,
            "roughnessFactor" : 1.0
         }
      },
      {
         "pbrMetallicRoughness" : 
         {
            "baseColorFactor" : [ 1.0, 1.0, 0.0, 1.0 ],
            "metallicFactor" : 0.0,
            "roughnessFactor" : 1.0
         }
      },
      {
         "pbrMetallicRoughness" : 
         {
            "baseColorFactor" : [ 0.0, 1.0, 0.0, 1.0 ],
            "metallicFactor" : 0.0,
            "roughnessFactor" : 1.0
         }
      },
      {
         "pbrMetallicRoughness" : 
         {
            "baseColorFactor" : [ 1.0, 1.0, 1.0, 1.0 ],
            "metallicFactor" : 0.0,
            "roughnessFactor" : 1.0
         }
      },
      {
         "pbrMetallicRoughness" : 
         {
            "baseColorFactor" : [ 1.0, 1.0, 1.0, 1.0 ],
            "metallicFactor" : 0.0,
            "roughnessFactor" : 1.0
         }
      },
      {
         "pbrMetallicRoughness" : 
         {
            "baseColorFactor" : [ 1.0, 1.0, 1.0, 1.0 ],
            "metallicFactor" : 0.0,
            "roughnessFactor" : 1.0
         }
      }
   ],
   "meshes" : 
   [
      {
         "primitives" : 
         [
            {
               "attributes" : 
               {
                  "POSITION" : 0,
                  "TEXCOORD_0" : 1
               },
               "indices" : 2,
               "material" : 0,
               "mode" : 4
            }
         ]
      },
      {
         "primitives" : 
         [
            {
               "attributes" : 
               {
                  "POSITION" : 3,
                  "TEXCOORD_0" : 4
               },
               "indices" : 5,
               "material" : 1,
               "mode" : 1
            }
         ]
      },
      {
         "primitives" : 
         [
            {
               "attributes" : 
               {
                  "POSITION" : 6,
                  "TEXCOORD_0" : 7
               },
               "indices" : 8,
               "material" : 2,
               "mode" : 1
            }
         ]
      },
      {
         "primitives" : 
         [
            {
               "attributes" : 
               {
                  "POSITION" : 9,
                  "TEXCOORD_0" : 10
               },
               "indices" : 11,
               "material" : 3,
               "mode" : 1
            }
         ]
      },
      {
         "primitives" : 
         [
            {
               "attributes" : 
               {
                  "POSITION" : 12
               },
               "indices" : 13,
               "material" : 4,
               "mode" : 4
            }
         ]
      },
      {
         "primitives" : 
         [
            {
               "attributes" : 
               {
                  "POSITION" : 14
               },
               "indices" : 15,
               "material" : 5,
               "mode" : 4
            }
         ]
      },
      {
         "primitives" : 
         [
            {
               "attributes" : 
               {
                  "POSITION" : 16
               },
               "indices" : 17,
               "material" : 6,
               "mode" : 4
            }
         ]
      },
      {
         "primitives" : 
         [
            {
               "attributes" : 
               {
                  "POSITION" : 18
               },
               "indices" : 19,
               "material" : 7,
               "mode" : 4
            }
         ]
      },
      {
         "primitives" : 
         [
            {
               "attributes" : 
               {
                  "POSITION" : 20
               },
               "indices" : 21,
               "material" : 8,
               "mode" : 4
            }
         ]
      },
      {
         "primitives" : 
         [
            {
               "attributes" : 
               {
                  "POSITION" : 22
               },
               "indices" : 23,
               "material" : 9,
               "mode" : 4
            }
         ]
      }
   ],
   "nodes" : 
   [
      {
         "matrix" : 
         [
            1.0,
            0.0,
            0.0,
            0.0,
            0.0,
            1.0,
            0.0,
            0.0,
            0.0,
            0.0,
            1.0,
            0.0,
            0.0,
            0.0,
            0.0,
            1.0
         ],
         "mesh" : 0
      },
      {
         "camera" : 0,
         "children" : [ 0 ],
         "matrix" : 
         [
            -0.73440292658116646,
            0.23935084701292952,
            -0.63510905635426973,
            0.0,
            -0.63092176191454441,
            -0.58568037779323412,
            0.50883811316628147,
            0.0,
            -0.25018007868666281,
            0.77439632430827543,
            0.58113704160565038,
            0.0,
            8.3107416160458065,
            0.97993528724470735,
            -34.37649892117831,
            1.0
         ],
         "name" : "Camera Node"
      },
      {
         "matrix" : 
         [
            1.7763568658700301e-16,
            -0.80000001192092896,
            0.0,
            0.0,
            0.80000001192092896,
            1.7763568658700301e-16,
            0.0,
            0.0,
            0.0,
            0.0,
            0.80000001192092896,
            0.0,
            0.0,
            0.0,
            0.0,
            1.0
         ],
         "mesh" : 1
      },
      {
         "matrix" : 
         [
            0.80000001192092896,
            0.0,
            0.0,
            0.0,
            0.0,
            0.80000001192092896,
            0.0,
            0.0,
            0.0,
            0.0,
            0.80000001192092896,
            0.0,
            0.0,
            0.0,
            0.0,
            1.0
         ],
         "mesh" : 2
      },
      {
         "matrix" : 
         [
            0.80000001192092896,
            0.0,
            0.0,
            0.0,
            0.0,
            1.7763568658700301e-16,
            0.80000001192092896,
            0.0,
            0.0,
            -0.80000001192092896,
            1.7763568658700301e-16,
            0.0,
            0.0,
            0.0,
            0.0,
            1.0
         ],
         "mesh" : 3
      },
      {
         "matrix" : 
         [
            4.4408921646750752e-17,
            -0.20000000298023224,
            0.0,
            0.0,
            0.20000000298023224,
            4.4408921646750752e-17,
            0.0,
            0.0,
            0.0,
            0.0,
            0.20000000298023224,
            0.0,
            0.89999999850988388,
            1.9984014410165593e-16,
            0.0,
            1.0
         ],
         "mesh" : 4
      },
      {
         "matrix" : 
         [
            0.20000000298023224,
            0.0,
            0.0,
            0.0,
            0.0,
            0.20000000298023224,
            0.0,
            0.0,
            0.0,
            0.0,
            0.20000000298023224,
            0.0,
            0.0,
            0.89999999850988388,
            0.0,
            1.0
         ],
         "mesh" : 5
      },
      {
         "matrix" : 
         [
            0.20000000298023224,
            0.0,
            0.0,
            0.0,
            0.0,
            4.4408921646750752e-17,
            0.20000000298023224,
            0.0,
            0.0,
            -0.20000000298023224,
            4.4408921646750752e-17,
            0.0,
            0.0,
            1.9984014410165593e-16,
            0.89999999850988388,
            1.0
         ],
         "mesh" : 6
      },
      {
         "matrix" : 
         [
            -0.13596781862387369,
            -0.13429049995646375,
            -0.058981481095351604,
            0.0,
            0.044476460995279347,
            -0.11438925366326319,
            0.15791435734533429,
            0.0,
            -0.13976622592061966,
            0.094239914366989697,
            0.10763011578597163,
            0.0,
            0.80000001192092896,
            -3.5527137317400601e-16,
            0.0,
            1.0
         ],
         "mesh" : 7
      },
      {
         "matrix" : 
         [
            -0.13658386836974146,
            -0.13318806138242495,
            -0.060048217279461621,
            0.0,
            0.057180834463145598,
            -0.12437760401394134,
            0.14581003045724408,
            0.0,
            -0.134444041382831,
            0.082408452946499997,
            0.12301889209267419,
            0.0,
            0.0,
            0.80000001192092896,
            0.0,
            1.0
         ],
         "mesh" : 8
      },
      {
         "matrix" : 
         [
            -0.14261360954283994,
            -0.12972766904901309,
            -0.053217397985668484,
            0.0,
            0.035060289637589476,
            -0.10648602622473588,
            0.16562458604170488,
            0.0,
            -0.13576500158650476,
            0.10877251166571222,
            0.098673229612908531,
            0.0,
            0.0,
            -3.5527137317400601e-16,
            0.80000001192092896,
            1.0
         ],
         "mesh" : 9
      },
      {
         "camera" : 1,
         "children" : [ 2, 3, 4, 5, 6, 7, 8, 9, 10 ],
         "matrix" : 
         [
            -0.73440292658116646,
            0.23935084701292952,
            -0.63510905635426973,
            0.0,
            -0.63092176191454441,
            -0.58568037779323412,
            0.50883811316628147,
            0.0,
            -0.25018007868666281,
            0.77439632430827543,
            0.58113704160565038,
            0.0,
            2.2204460492503131e-16,
            0.0,
            -6.6921304299024627,
            1.0
         ],
         "name" : "Camera Node"
      }
   ],
   "samplers" : 
   [
      {
         "magFilter" : 9728,
         "minFilter" : 9728,
         "wrapS" : 33071,
         "wrapT" : 33071
      }
   ],
   "scene" : 0,
   "scenes" : 
   [
      {
         "name" : "Layer 0",
         "nodes" : [ 1, 11 ]
      }
   ],
   "textures" : 
   [
      {
         "sampler" : 0,
         "source" : 0
      }
   ]
}